<svg xmlns="http://www.w3.org/2000/svg" xmlns:xlink="http://www.w3.org/1999/xlink" width="100" zoomAndPan="magnify" viewBox="0 0 75 30.750001" height="41" preserveAspectRatio="xMidYMid meet" version="1.0"><defs><g/></defs><g fill="#1e1e1e" fill-opacity="1"><g transform="translate(0.89894, 27.710505)"><g><path d="M 12.78125 -8.109375 L 18.890625 -7.6875 L 19.046875 -2.4375 L 17.828125 -0.0625 L 3.015625 0.03125 L 0.828125 -1.15625 L 0.65625 -24.109375 L 1.640625 -26.28125 L 17.40625 -26.078125 L 19.375 -24.34375 L 18.921875 -17.25 L 12.703125 -17.25 L 12.15625 -20.953125 L 7.546875 -21.15625 L 7.84375 -4.859375 L 12.21875 -4.53125 Z M 12.78125 -8.109375 "/></g></g></g><g fill="#1e1e1e" fill-opacity="1"><g transform="translate(56.78548, 27.177451)"><g><path d="M 9.90625 -6.078125 L 8.46875 -5.171875 L 10.234375 -1.765625 L 9.953125 -0.875 L 6.953125 -0.015625 L 5.40625 -3.3125 L 4.171875 -2.5625 L 4.078125 -0.375 L 0.359375 -0.078125 L 0.40625 -14.140625 L 4.59375 -14.3125 L 4.3125 -6.78125 L 6.5 -8.296875 L 6.734375 -10.515625 L 10.484375 -10.390625 Z M 9.90625 -6.078125 "/></g></g></g><g fill="#1e1e1e" fill-opacity="1"><g transform="translate(29.190087, 26.513443)"><g><path d="M 11.3125 -12.265625 L 12.421875 -10.890625 L 12.3125 -1.59375 L 11.484375 -0.078125 L 1.953125 -0.015625 L 0.53125 -0.765625 L 0.421875 -11.03125 L 1.28125 -12.46875 Z M 7.90625 -8.90625 L 4.9375 -9.03125 L 5.015625 -3.40625 L 7.84375 -3.171875 Z M 7.90625 -8.90625 "/></g></g></g><g fill="#1e1e1e" fill-opacity="1"><g transform="translate(43.104269, 26.513443)"><g><path d="M 8.25 -4.59375 L 12.234375 -4.40625 L 12.328125 -1.6875 L 11.484375 -0.171875 L 1.9375 -0.046875 L 0.53125 -0.875 L 0.421875 -11.0625 L 1.28125 -12.484375 L 10.953125 -12.296875 L 12.546875 -11.203125 L 12.25 -6.734375 L 8.140625 -6.734375 L 7.90625 -9 L 5 -9.125 L 5.078125 -3.484375 L 7.890625 -3.296875 Z M 8.25 -4.59375 "/></g></g></g><g fill="#1e1e1e" fill-opacity="1"><g transform="translate(21.720938, 26.513443)"><g><path d="M 0.46875 -16.96875 L 6.171875 -16.96875 L 5.546875 -0.359375 L 1.171875 0 L 1.25 -13.015625 L 0.421875 -13.390625 Z M 0.46875 -16.96875 "/></g></g></g></svg>